<?xml version="1.0" standalone="no"?>
<!DOCTYPE svg PUBLIC "-//W3C//DTD SVG 20010904//EN"
 "http://www.w3.org/TR/2001/REC-SVG-20010904/DTD/svg10.dtd">
<svg version="1.0" xmlns="http://www.w3.org/2000/svg"
 width="640.000000pt" height="506.000000pt" viewBox="0 0 640.000000 506.000000"
 preserveAspectRatio="xMidYMid meet">

<g transform="translate(0.000000,506.000000) scale(0.100000,-0.100000)"
fill="#000000" stroke="none">
<path d="M0 2530 l0 -2530 1248 0 1247 1 -71 23 c-255 83 -425 313 -426 576 0
117 13 171 65 280 73 150 214 266 382 316 81 24 239 24 320 0 207 -61 371
-225 430 -431 21 -72 24 -218 6 -295 -19 -80 -72 -186 -128 -255 -63 -78 -180
-157 -280 -189 l-78 -25 920 0 920 -1 -80 28 c-186 65 -330 209 -391 392 -30
86 -27 292 5 383 48 142 156 267 291 340 97 52 169 70 285 70 171 1 308 -56
431 -178 120 -120 178 -259 178 -430 0 -114 -17 -185 -70 -285 -71 -135 -204
-247 -352 -294 l-77 -25 813 -1 812 0 0 1902 c0 1046 -2 1899 -4 1897 -2 -2
-151 -456 -330 -1009 -180 -553 -352 -1080 -382 -1172 l-56 -168 -2009 0
-2009 0 0 1232 0 1232 -81 175 c-45 97 -127 268 -182 380 l-101 204 -528 -5
-528 -5 -2 156 c-1 86 -3 175 -3 199 l0 42 -92 0 -93 0 0 -2530z"/>
<path d="M1375 5046 c131 -41 167 -88 330 -421 72 -148 158 -330 191 -403 l59
-133 230 5 c127 3 984 8 1905 11 921 3 1818 8 1993 11 l317 7 0 468 0 469
-2532 -1 c-2058 0 -2525 -3 -2493 -13z"/>
<path d="M3980 3619 c-602 -3 -1274 -7 -1492 -8 l-398 -1 0 -840 0 -840 1593
0 1593 0 194 598 c107 328 231 711 276 850 l82 252 -377 -2 c-207 -1 -869 -5
-1471 -9z"/>
<path d="M2507 886 c-156 -58 -234 -224 -180 -382 25 -74 113 -157 188 -180
205 -59 396 91 383 301 -11 160 -117 265 -278 272 -48 2 -89 -2 -113 -11z"/>
<path d="M4580 891 c-156 -48 -244 -219 -194 -377 25 -81 108 -165 184 -188
111 -33 221 -9 298 64 61 59 84 111 90 201 4 66 1 84 -20 130 -35 77 -70 113
-140 148 -51 26 -73 31 -127 30 -36 0 -77 -4 -91 -8z"/>
</g>
</svg>
